<svg xmlns="http://www.w3.org/2000/svg" viewBox="0 0 386.05 388.29"><defs><style>.cls-1{isolation:isolate;}.cls-2{fill:#8bd2ce;}.cls-3,.cls-4{fill:#fff;}.cls-4,.cls-7{opacity:0.5;}.cls-5{fill:#4ec7e6;}.cls-22,.cls-27,.cls-37,.cls-43,.cls-5,.cls-7{mix-blend-mode:multiply;}.cls-6,.cls-9{fill:#48c4df;}.cls-26,.cls-6,.cls-8{mix-blend-mode:screen;}.cls-7{fill:#006196;}.cls-10{fill:#e3e2d7;}.cls-11{fill:#b2b6b6;}.cls-12{fill:#b29e7a;}.cls-13{fill:#afa0ab;}.cls-14{fill:#c1a280;}.cls-15{fill:#adc1bd;}.cls-16{fill:#ebe9a2;}.cls-17{fill:#dbca74;}.cls-18{fill:#84b5bc;}.cls-19{fill:#436a46;}.cls-20{fill:#8ab676;}.cls-21,.cls-22{fill:#5b895d;}.cls-23{fill:#2a4047;}.cls-24{fill:#445e68;}.cls-25,.cls-26,.cls-27{fill:#f6dfc9;}.cls-28{fill:#626c91;}.cls-29{fill:#7a85b3;}.cls-30{fill:#efcaac;}.cls-31{fill:#6b3f33;}.cls-32{fill:#694312;}.cls-33{fill:#87513c;}.cls-34{fill:#646669;}.cls-35{fill:#afb1b4;}.cls-36{fill:#c9c7c6;}.cls-37{fill:#e2dfca;}.cls-38{fill:#90a5a5;}.cls-39{fill:#794b29;}.cls-40{fill:#633b1d;}.cls-41{fill:#72533d;}.cls-42{fill:#89644b;}.cls-44{fill:#a4775a;}</style></defs><g class="cls-1"><g id="Layer_2" data-name="Layer 2"><g id="Layer_1-2" data-name="Layer 1"><path class="cls-2" d="M386.05,388.29V193c0-106.61-86.42-193-193-193S0,86.42,0,193V388.29Z"/><path class="cls-3" d="M194.2,246.29a89,89,0,1,1,89-89A89.1,89.1,0,0,1,194.2,246.29Zm0-176.87a87.87,87.87,0,1,0,87.87,87.87A88,88,0,0,0,194.2,69.42Z"/><path class="cls-4" d="M194.2,302C114.4,302,49.47,237.1,49.47,157.29S114.4,12.56,194.2,12.56,338.93,77.49,338.93,157.29,274,302,194.2,302Zm0-287.63c-78.8,0-142.9,64.11-142.9,142.9s64.1,142.9,142.9,142.9,142.9-64.1,142.9-142.9S273,14.39,194.2,14.39Z"/><path class="cls-5" d="M246.3,74.53c0-.67,0-1.33-.1-2l3.22-1.78a26.4,26.4,0,0,0-1.61-6l-3.68.06a23.33,23.33,0,0,0-2-3.43L244,58.22a26.29,26.29,0,0,0-4.41-4.41l-3.15,1.88a22.82,22.82,0,0,0-3.43-2L233.1,50a25.84,25.84,0,0,0-6-1.62l-1.79,3.22q-1-.09-2-.09t-2,.09l-1.79-3.22a25.84,25.84,0,0,0-6,1.62l.06,3.67a22.82,22.82,0,0,0-3.43,2L207,53.81a26.29,26.29,0,0,0-4.41,4.41l1.88,3.15a23.33,23.33,0,0,0-2,3.43l-3.67-.06a25.92,25.92,0,0,0-1.62,6l3.22,1.78c-.06.65-.1,1.31-.1,2s0,1.33.1,2L197.2,78.3a25.7,25.7,0,0,0,1.62,6l3.67-.06a22.92,22.92,0,0,0,2,3.44l-1.88,3.15A26.67,26.67,0,0,0,207,95.26l3.15-1.89a22.87,22.87,0,0,0,3.43,2L213.52,99a26.32,26.32,0,0,0,6,1.61l1.79-3.21c.65,0,1.31.09,2,.09s1.33,0,2-.09l1.79,3.21a26.32,26.32,0,0,0,6-1.61L233,95.36a22.87,22.87,0,0,0,3.43-2l3.15,1.89A26.35,26.35,0,0,0,244,90.84l-1.88-3.14a22.92,22.92,0,0,0,2-3.44l3.68.06a26.19,26.19,0,0,0,1.61-6l-3.22-1.79C246.26,75.86,246.3,75.2,246.3,74.53Zm-23,6.53a6.53,6.53,0,1,1,6.53-6.53A6.53,6.53,0,0,1,223.31,81.06Z"/><path class="cls-6" d="M318.13,155.53c0-.72,0-1.42-.1-2.12l3.44-1.91a27.76,27.76,0,0,0-1.73-6.45l-3.92.07a25.34,25.34,0,0,0-2.13-3.68l2-3.36a28.11,28.11,0,0,0-4.72-4.72l-3.37,2a25.18,25.18,0,0,0-3.67-2.12l.06-3.93a28.27,28.27,0,0,0-6.45-1.73L295.65,131c-.7-.06-1.4-.09-2.12-.09s-1.42,0-2.12.09l-1.91-3.44a28.32,28.32,0,0,0-6.44,1.73l.06,3.93a24.67,24.67,0,0,0-3.67,2.12l-3.37-2a28.11,28.11,0,0,0-4.72,4.72l2,3.36a25.34,25.34,0,0,0-2.13,3.68l-3.92-.07a27.76,27.76,0,0,0-1.73,6.45l3.44,1.91c-.06.7-.1,1.4-.1,2.12s0,1.42.1,2.12l-3.44,1.91a28,28,0,0,0,1.73,6.45l3.92-.07a24.72,24.72,0,0,0,2.13,3.67l-2,3.37a28.11,28.11,0,0,0,4.72,4.72l3.37-2a23.87,23.87,0,0,0,3.67,2.13l-.06,3.93a27.8,27.8,0,0,0,6.44,1.72l1.91-3.44c.7.07,1.41.1,2.12.1a21.2,21.2,0,0,0,2.12-.1l1.91,3.44a27.75,27.75,0,0,0,6.45-1.72l-.06-3.93a24.36,24.36,0,0,0,3.67-2.13l3.37,2a28.11,28.11,0,0,0,4.72-4.72l-2-3.37a24.72,24.72,0,0,0,2.13-3.67l3.92.07a28,28,0,0,0,1.73-6.45L318,157.65C318.09,157,318.13,156.24,318.13,155.53Zm-24.6,11.32a11.32,11.32,0,1,1,11.33-11.32A11.32,11.32,0,0,1,293.53,166.85Z"/><path class="cls-5" d="M277.41,225.35c0-.35,0-.7-.05-1l1.7-.95a14.06,14.06,0,0,0-.85-3.18l-1.94,0a12.54,12.54,0,0,0-1-1.81l1-1.67a14.67,14.67,0,0,0-2.33-2.33l-1.67,1a12.54,12.54,0,0,0-1.81-1.05l0-1.94a14.06,14.06,0,0,0-3.18-.85l-.95,1.7c-.34,0-.69,0-1,0s-.71,0-1,0l-.94-1.7a14.15,14.15,0,0,0-3.19.85l0,1.94a12.54,12.54,0,0,0-1.81,1.05l-1.66-1a14.27,14.27,0,0,0-2.33,2.33l1,1.67a11.68,11.68,0,0,0-1,1.81l-1.94,0a13.58,13.58,0,0,0-.86,3.18l1.7.95c0,.34,0,.69,0,1s0,.71,0,1.05l-1.7.94a13.66,13.66,0,0,0,.86,3.19l1.94,0a10.62,10.62,0,0,0,1,1.82l-1,1.66a13.52,13.52,0,0,0,2.33,2.33l1.66-1a11.73,11.73,0,0,0,1.81,1.06l0,1.94a14.15,14.15,0,0,0,3.19.85l.94-1.7c.34,0,.69.05,1,.05s.7,0,1-.05l.95,1.7a14.06,14.06,0,0,0,3.18-.85l0-1.94a11.73,11.73,0,0,0,1.81-1.06l1.67,1a13.88,13.88,0,0,0,2.33-2.33l-1-1.66a12.12,12.12,0,0,0,1-1.82l1.94,0a14.15,14.15,0,0,0,.85-3.19l-1.7-.94C277.39,226.06,277.41,225.71,277.41,225.35Zm-12.14,5.59a5.59,5.59,0,1,1,5.59-5.59A5.59,5.59,0,0,1,265.27,230.94Z"/><path class="cls-3" d="M118.08,158.8c0-.35,0-.7,0-1l1.7-.95a14.06,14.06,0,0,0-.85-3.18l-1.95,0a12.48,12.48,0,0,0-1-1.81l1-1.66a13.94,13.94,0,0,0-2.33-2.34l-1.66,1a12.54,12.54,0,0,0-1.81-1l0-1.94a14.15,14.15,0,0,0-3.19-.85l-.94,1.7c-.35,0-.69-.05-1-.05s-.7,0-1,.05l-1-1.7a14.06,14.06,0,0,0-3.18.85l0,1.94a12.54,12.54,0,0,0-1.81,1l-1.66-1A14.39,14.39,0,0,0,95,150.19l1,1.66a12.54,12.54,0,0,0-1,1.81l-1.94,0a14.06,14.06,0,0,0-.85,3.18l1.7.95c0,.34,0,.69,0,1s0,.71,0,1l-1.7.94A14.15,14.15,0,0,0,93,164l1.94,0a12.12,12.12,0,0,0,1,1.82l-1,1.66a13.94,13.94,0,0,0,2.34,2.33l1.66-1a12.54,12.54,0,0,0,1.81,1.05l0,1.94a14.06,14.06,0,0,0,3.18.85l1-1.7c.34,0,.69,0,1,0s.7,0,1,0l.94,1.7a14.15,14.15,0,0,0,3.19-.85l0-1.94a12.54,12.54,0,0,0,1.81-1.05l1.66,1a13.52,13.52,0,0,0,2.33-2.33l-1-1.66a12.07,12.07,0,0,0,1-1.82l1.95,0a14.15,14.15,0,0,0,.85-3.19l-1.7-.94C118.06,159.51,118.08,159.16,118.08,158.8Zm-12.15,5.59a5.59,5.59,0,1,1,5.59-5.59A5.59,5.59,0,0,1,105.93,164.39Z"/><path class="cls-3" d="M315.39,221.58l-.25,0a17.79,17.79,0,0,1-4.13-1.11l-.23-.09,0-2.48a17.52,17.52,0,0,1-2-1.14L306.73,218l-.19-.15a18,18,0,0,1-3-3l-.16-.19,1.28-2.13a15.83,15.83,0,0,1-1.13-2l-2.49,0-.09-.23a18.55,18.55,0,0,1-1.11-4.13l0-.25,2.17-1.2c0-.38,0-.76,0-1.14s0-.75,0-1.13l-2.17-1.2,0-.25a18.55,18.55,0,0,1,1.11-4.13l.09-.23,2.49,0a16.59,16.59,0,0,1,1.13-2l-1.28-2.13.16-.19a18,18,0,0,1,3-3l.19-.15,2.13,1.28a16.1,16.1,0,0,1,2-1.14l0-2.48.23-.09a17.79,17.79,0,0,1,4.13-1.11l.25,0,1.21,2.17a14.21,14.21,0,0,1,2.26,0l1.21-2.17.24,0a17.79,17.79,0,0,1,4.13,1.11l.23.09,0,2.48a16.1,16.1,0,0,1,2,1.14l2.13-1.28.19.15a18.48,18.48,0,0,1,3,3l.15.19-1.28,2.13a16.67,16.67,0,0,1,1.14,2l2.48,0,.09.23a17.53,17.53,0,0,1,1.11,4.13l0,.25-2.17,1.2c0,.38,0,.75,0,1.13s0,.76,0,1.14l2.17,1.2,0,.25a17.53,17.53,0,0,1-1.11,4.13l-.09.23-2.48,0a15.38,15.38,0,0,1-1.14,2l1.28,2.13-.15.19a18.48,18.48,0,0,1-3,3l-.19.15-2.13-1.28a15.38,15.38,0,0,1-2,1.14l0,2.48-.23.09a17.79,17.79,0,0,1-4.13,1.11l-.24,0-1.21-2.17a17,17,0,0,1-2.26,0Zm3.87-2.92,1.19,2.14a17.23,17.23,0,0,0,3.5-.93l0-2.46.21-.09a15.34,15.34,0,0,0,2.25-1.31l.19-.13,2.1,1.26a17.21,17.21,0,0,0,2.56-2.56l-1.26-2.1.13-.19A14.93,14.93,0,0,0,331.4,210l.1-.21,2.45,0a17,17,0,0,0,.93-3.49l-2.14-1.19,0-.23c0-.43.06-.87.06-1.31s0-.87-.06-1.3l0-.23,2.14-1.19a17.23,17.23,0,0,0-.93-3.5l-2.45.05-.1-.21a14.93,14.93,0,0,0-1.31-2.26l-.13-.19,1.26-2.1a17.21,17.21,0,0,0-2.56-2.56l-2.1,1.26-.19-.13a15.49,15.49,0,0,0-2.25-1.31l-.21-.1,0-2.45a17.23,17.23,0,0,0-3.5-.93l-1.19,2.14-.23,0a16.25,16.25,0,0,0-2.61,0l-.23,0L315,186.49a17.14,17.14,0,0,0-3.49.93l0,2.45-.21.1a16,16,0,0,0-2.26,1.31l-.19.13-2.1-1.26a18.22,18.22,0,0,0-2.56,2.56l1.26,2.1-.13.19a14.93,14.93,0,0,0-1.31,2.26l-.09.21-2.46-.05a17.9,17.9,0,0,0-.93,3.5l2.15,1.19,0,.23c0,.43-.06.87-.06,1.3s0,.88.06,1.31l0,.23-2.15,1.19a17.63,17.63,0,0,0,.93,3.49l2.46,0,.09.21a15.68,15.68,0,0,0,1.31,2.26l.13.19-1.26,2.1a18.22,18.22,0,0,0,2.56,2.56l2.1-1.26.19.13a15.44,15.44,0,0,0,2.26,1.31l.21.09,0,2.46a17.14,17.14,0,0,0,3.49.93l1.19-2.14.23,0a16.25,16.25,0,0,0,2.61,0Zm-1.53-7.55a7.47,7.47,0,1,1,7.47-7.47A7.48,7.48,0,0,1,317.73,211.11Zm0-14.22a6.76,6.76,0,1,0,6.75,6.75A6.76,6.76,0,0,0,317.73,196.89Z"/><path class="cls-5" d="M295.3,225.35c0-.87,0-1.73-.11-2.59l4.2-2.33a34.47,34.47,0,0,0-2.11-7.87l-4.8.08a29.82,29.82,0,0,0-2.6-4.49l2.47-4.11a35.33,35.33,0,0,0-5.76-5.77l-4.12,2.47a29.82,29.82,0,0,0-4.49-2.6l.08-4.8a35,35,0,0,0-7.87-2.11l-2.33,4.21c-.86-.08-1.72-.12-2.59-.12s-1.74,0-2.59.12l-2.34-4.21a34.61,34.61,0,0,0-7.87,2.11l.08,4.8a30.22,30.22,0,0,0-4.48,2.6L244,198.27a35,35,0,0,0-5.77,5.77l2.47,4.11a28.93,28.93,0,0,0-2.59,4.49l-4.8-.08a34,34,0,0,0-2.11,7.87l4.2,2.33c-.07.86-.12,1.72-.12,2.59s.05,1.74.12,2.59l-4.2,2.34a34.1,34.1,0,0,0,2.11,7.87l4.8-.08a28.93,28.93,0,0,0,2.59,4.49l-2.47,4.11a35,35,0,0,0,5.77,5.77l4.12-2.47a30.22,30.22,0,0,0,4.48,2.6l-.08,4.79a34.1,34.1,0,0,0,7.87,2.11l2.34-4.2c.85.08,1.71.12,2.59.12s1.73,0,2.59-.12l2.33,4.2a34,34,0,0,0,7.87-2.11l-.08-4.79a29.82,29.82,0,0,0,4.49-2.6l4.12,2.47a35.33,35.33,0,0,0,5.76-5.77l-2.47-4.11a29.82,29.82,0,0,0,2.6-4.49l4.8.08a34.61,34.61,0,0,0,2.11-7.87l-4.2-2.34C295.26,227.09,295.3,226.23,295.3,225.35Zm-30,28a28,28,0,1,1,28-28A28,28,0,0,1,265.27,253.32Z"/><path class="cls-3" d="M285.9,152.7l-.38-.06a47.36,47.36,0,0,1-11.08-3l-.36-.14.11-6.7a42.17,42.17,0,0,1-5.7-3.3L262.75,143l-.31-.24a49.5,49.5,0,0,1-8.12-8.12l-.24-.3,3.45-5.75a42.68,42.68,0,0,1-3.3-5.69l-6.7.11-.15-.36a49.15,49.15,0,0,1-3-11.09l0-.38,5.86-3.26c-.09-1.19-.14-2.27-.14-3.29s0-2.09.14-3.28l-5.86-3.26,0-.39a48.51,48.51,0,0,1,3-11.08l.15-.36,6.7.11a42.79,42.79,0,0,1,3.3-5.7l-3.45-5.74.24-.31a49.83,49.83,0,0,1,8.12-8.11l.31-.24,5.74,3.44a42.1,42.1,0,0,1,5.7-3.29l-.11-6.7.36-.15a48.36,48.36,0,0,1,11.08-3l.38,0,3.26,5.86a39.06,39.06,0,0,1,6.58,0L299,56.53l.39,0a48.91,48.91,0,0,1,11.08,3l.36.15-.11,6.7a43.19,43.19,0,0,1,5.7,3.29l5.74-3.44.31.24a49,49,0,0,1,8.11,8.11l.25.31-3.45,5.75a42.51,42.51,0,0,1,3.3,5.69l6.7-.11.14.36a47.89,47.89,0,0,1,3,11.08l0,.39-5.86,3.26c.09,1.2.14,2.28.14,3.28s-.05,2.07-.14,3.29l5.86,3.26,0,.38a48.1,48.1,0,0,1-3,11.09l-.14.36-6.7-.11a42.51,42.51,0,0,1-3.3,5.69l3.45,5.75-.25.3a49.06,49.06,0,0,1-8.11,8.12l-.31.24-5.74-3.45a41,41,0,0,1-5.7,3.3l.11,6.7-.36.14a47.89,47.89,0,0,1-11.08,3l-.39.06-3.25-5.87a38.05,38.05,0,0,1-6.58,0Zm10.47-7,3.23,5.82a47.07,47.07,0,0,0,10.08-2.7l-.11-6.65.33-.15a40.62,40.62,0,0,0,6.16-3.57l.3-.21,5.7,3.42a47.32,47.32,0,0,0,7.39-7.38l-3.42-5.7.21-.3a41.56,41.56,0,0,0,3.56-6.16l.16-.33,6.65.11a47.22,47.22,0,0,0,2.7-10.08l-5.82-3.24,0-.36c.11-1.34.16-2.47.16-3.56s-.05-2.23-.16-3.55l0-.36,5.82-3.24a46.91,46.91,0,0,0-2.7-10.08l-6.65.11-.16-.33A41.56,41.56,0,0,0,326.24,81l-.21-.3,3.42-5.7a47.32,47.32,0,0,0-7.39-7.38L316.36,71l-.3-.2a40.75,40.75,0,0,0-6.16-3.57l-.33-.15.11-6.65a47.68,47.68,0,0,0-10.08-2.71l-3.23,5.83-.37,0a38.38,38.38,0,0,0-7.11,0l-.36,0-3.23-5.83a47,47,0,0,0-10.08,2.71l.11,6.65-.34.15a42,42,0,0,0-6.15,3.56l-.3.21-5.71-3.41A47.69,47.69,0,0,0,255.45,75l3.42,5.7-.21.3a40.34,40.34,0,0,0-3.56,6.16l-.15.33-6.66-.11a47.66,47.66,0,0,0-2.7,10.08l5.82,3.24,0,.36c-.11,1.3-.16,2.46-.16,3.55s.05,2.26.16,3.56l0,.36-5.82,3.24a47.7,47.7,0,0,0,2.7,10.08l6.66-.11.15.33a40.83,40.83,0,0,0,3.56,6.16l.21.3-3.42,5.7a47.69,47.69,0,0,0,7.38,7.38l5.71-3.42.3.21A41.15,41.15,0,0,0,275,142l.34.15-.11,6.65a46.45,46.45,0,0,0,10.08,2.7l3.23-5.82.36,0a38.38,38.38,0,0,0,7.11,0Zm-3.92-1.57a39.47,39.47,0,1,1,39.47-39.47A39.51,39.51,0,0,1,292.45,144.08Zm0-77.81a38.35,38.35,0,1,0,38.35,38.34A38.38,38.38,0,0,0,292.45,66.27Z"/><path class="cls-7" d="M248.59,149.49c-.4-1.52-.88-3-1.4-4.44l6.22-6a61.91,61.91,0,0,0-7.31-12.7l-8.29,2.36a54.06,54.06,0,0,0-6.59-6.6l2.38-8.28a61.89,61.89,0,0,0-12.68-7.35l-6,6.18a54.08,54.08,0,0,0-9-2.43l-2.08-8.37a61.34,61.34,0,0,0-14.65,0l-2.11,8.38c-1.52.27-3,.59-4.55,1s-3,.88-4.45,1.4l-6-6.22a61.87,61.87,0,0,0-12.7,7.3l2.36,8.3a54.06,54.06,0,0,0-6.6,6.59l-8.28-2.39a62.15,62.15,0,0,0-7.35,12.68l6.18,6a54,54,0,0,0-2.44,9l-8.37,2.08a61.88,61.88,0,0,0,0,14.65l8.37,2.11c.27,1.52.59,3,1,4.56s.88,3,1.4,4.44l-6.22,6a61.67,61.67,0,0,0,7.3,12.7L155,198a54,54,0,0,0,6.58,6.6l-2.38,8.28a62.15,62.15,0,0,0,12.68,7.35l6-6.18a54.71,54.71,0,0,0,9,2.44l2.08,8.36a61.34,61.34,0,0,0,14.65,0l2.11-8.38c1.52-.26,3-.58,4.55-1s3-.88,4.45-1.4l6,6.22a61.34,61.34,0,0,0,12.7-7.3l-2.35-8.3a53.28,53.28,0,0,0,6.59-6.59l8.29,2.39a62.15,62.15,0,0,0,7.35-12.68l-6.19-6a53.15,53.15,0,0,0,2.44-9l8.37-2.07a61.87,61.87,0,0,0,0-14.65l-8.38-2.11C249.31,152.53,249,151,248.59,149.49Zm-41,56a43.56,43.56,0,1,1,30.9-53.3A43.56,43.56,0,0,1,207.61,205.47Z"/><path class="cls-7" d="M223.86,156.07a28.4,28.4,0,1,1-34.75-20.14A28.41,28.41,0,0,1,223.86,156.07Z"/><g class="cls-8"><path class="cls-9" d="M123.58,127a42.64,42.64,0,0,1-5-.3l-.39,0-1.4-5.64a37.87,37.87,0,0,1-5.43-1.47l-4,4.17-.36-.16a42.37,42.37,0,0,1-8.62-5l-.31-.23,1.6-5.59a37.3,37.3,0,0,1-4-4L90,110.36l-.24-.31a42.42,42.42,0,0,1-5-8.64l-.15-.36,4.19-4c-.33-.94-.61-1.83-.84-2.69s-.42-1.75-.61-2.74l-5.64-1.42-.05-.39a42.09,42.09,0,0,1,0-10l0-.38L87.42,78a36.06,36.06,0,0,1,1.47-5.43l-4.17-4,.15-.36a42.57,42.57,0,0,1,5-8.62l.24-.31,5.58,1.6a37.29,37.29,0,0,1,4-4l-1.59-5.6.31-.23a42.23,42.23,0,0,1,8.65-5l.35-.16,4,4.19c.94-.33,1.83-.6,2.68-.83s1.76-.43,2.74-.61L118.29,43l.38,0a41.57,41.57,0,0,1,10,0l.38,0,1.41,5.65a36.06,36.06,0,0,1,5.43,1.47l4-4.17.36.15a42.37,42.37,0,0,1,8.63,5l.31.23L147.59,57a36.48,36.48,0,0,1,4,4l5.59-1.59.23.31a42.39,42.39,0,0,1,5,8.64l.15.36-4.19,4c.33,1,.61,1.84.83,2.69s.43,1.75.61,2.74l5.65,1.42,0,.39a41.57,41.57,0,0,1,0,10l-.05.38-5.64,1.4a36.61,36.61,0,0,1-1.47,5.43l4.17,4.05-.16.36a41.91,41.91,0,0,1-5,8.62l-.23.32-5.59-1.61a36.3,36.3,0,0,1-4,4l1.58,5.6-.31.23a41.48,41.48,0,0,1-8.64,5l-.36.15-4-4.19c-.94.33-1.82.6-2.68.83s-1.76.43-2.75.61l-1.42,5.65-.39,0A40.19,40.19,0,0,1,123.58,127Zm-4.53-1.38a41,41,0,0,0,8.93,0l1.41-5.6.36-.06c1.09-.2,2.08-.41,3-.66s1.89-.55,2.93-.93l.35-.12,4,4.16a41.16,41.16,0,0,0,7.75-4.45l-1.58-5.55.28-.23a35.21,35.21,0,0,0,4.36-4.36l.23-.27,5.54,1.59a41.75,41.75,0,0,0,4.49-7.73l-4.14-4,.13-.34a36.78,36.78,0,0,0,1.61-5.94l.06-.36,5.59-1.39a40.4,40.4,0,0,0,0-8.93l-5.6-1.41-.06-.36c-.2-1.1-.41-2.09-.66-3s-.54-1.89-.92-2.94l-.13-.34,4.16-4a41.32,41.32,0,0,0-4.45-7.74l-5.55,1.57-.23-.28a35.83,35.83,0,0,0-4.35-4.36l-.28-.23,1.59-5.54a41.61,41.61,0,0,0-7.73-4.48l-4,4.13-.35-.12a35.26,35.26,0,0,0-5.94-1.61l-.36-.07-1.39-5.59a40.4,40.4,0,0,0-8.93,0l-1.41,5.59-.36.07c-1.1.19-2.08.4-3,.65s-1.89.55-2.94.93l-.34.12-4-4.16a41.13,41.13,0,0,0-7.74,4.46L101,57.27l-.28.24a35,35,0,0,0-4.35,4.35l-.24.28-5.54-1.6a41.93,41.93,0,0,0-4.48,7.73l4.14,4-.13.34a35.63,35.63,0,0,0-1.61,6l-.06.35-5.6,1.39a41,41,0,0,0,0,8.93l5.6,1.42.06.36c.19,1.09.41,2.08.65,3s.55,1.9.93,2.94l.12.34-4.15,4a40.24,40.24,0,0,0,4.45,7.74L96,107.49l.24.28a35.83,35.83,0,0,0,4.35,4.36l.28.23-1.59,5.54a41.06,41.06,0,0,0,7.73,4.48l4-4.13.34.12a35.12,35.12,0,0,0,6,1.61l.36.07Zm4.51-11a29.78,29.78,0,1,1,7.69-1A29.83,29.83,0,0,1,123.56,114.67Zm0-58.5a28.69,28.69,0,0,0,0,57.38,29,29,0,0,0,7.4-1,28.69,28.69,0,0,0-7.36-56.41Z"/><path class="cls-9" d="M123.57,104.49a19.61,19.61,0,1,1,5.06-.66A19.64,19.64,0,0,1,123.57,104.49Zm0-38.14a18.76,18.76,0,0,0-4.77.63,18.51,18.51,0,0,0,4.74,36.39,18.82,18.82,0,0,0,4.77-.63,18.51,18.51,0,0,0-4.74-36.39Z"/></g><path class="cls-3" d="M152.24,225.23c.14-.59.25-1.18.35-1.77l3.23-.88a24.47,24.47,0,0,0-.11-5.68l-3.26-.74a21.59,21.59,0,0,0-1-3.47l2.36-2.37a24.84,24.84,0,0,0-2.94-4.87l-3.2,1a20.56,20.56,0,0,0-2.6-2.51l.85-3.23a23.27,23.27,0,0,0-5-2.74l-2.28,2.45c-.57-.19-1.14-.37-1.73-.51s-1.18-.26-1.77-.36l-.88-3.23a23.92,23.92,0,0,0-5.68.12l-.75,3.25a21.48,21.48,0,0,0-3.46,1L122,198.34a24.25,24.25,0,0,0-4.86,2.93l1,3.2a21.2,21.2,0,0,0-2.5,2.6l-3.24-.85a24.17,24.17,0,0,0-2.74,5l2.46,2.28c-.2.57-.37,1.14-.52,1.73s-.26,1.18-.35,1.78l-3.23.87a23.92,23.92,0,0,0,.11,5.68l3.26.75a21.59,21.59,0,0,0,1,3.47L110,230.12A24.29,24.29,0,0,0,113,235l3.2-1a21.2,21.2,0,0,0,2.6,2.5l-.86,3.24a24.52,24.52,0,0,0,5,2.74l2.28-2.45c.56.19,1.14.36,1.73.51s1.18.26,1.77.35l.88,3.23a23.93,23.93,0,0,0,5.68-.11l.75-3.26a21.78,21.78,0,0,0,3.46-1l2.37,2.36a24.09,24.09,0,0,0,4.87-2.94l-1-3.2a20.51,20.51,0,0,0,2.5-2.6l3.23.86a23.34,23.34,0,0,0,2.74-5L151.72,227C151.91,226.4,152.09,225.82,152.24,225.23Zm-24.37,11.38a16.89,16.89,0,1,1,20.44-12.35A16.87,16.87,0,0,1,127.87,236.61Z"/><rect class="cls-3" x="80.85" y="156.78" width="1.53" height="1.02"/><path class="cls-3" d="M381.93,157.8h-3.06v-1h3.06Zm-6.12,0h-3.05v-1h3.05Zm-6.11,0h-3.06v-1h3.06Zm-6.11,0h-3.06v-1h3.06Zm-6.12,0h-3.05v-1h3.05Zm-6.11,0H348.3v-1h3.06Zm-6.11,0h-3.06v-1h3.06Zm-6.12,0h-3.05v-1h3.05Zm-6.11,0H330v-1H333Zm-6.11,0h-3.06v-1h3.06Zm-6.11,0h-3.06v-1h3.06Zm-6.12,0h-3.05v-1h3.05Zm-6.11,0h-3.06v-1h3.06Zm-6.11,0H299.4v-1h3.06Zm-6.12,0h-3v-1h3Zm-6.11,0h-3.06v-1h3.06Zm-6.11,0h-3.06v-1h3.06Zm-6.12,0H275v-1H278Zm-6.11,0h-3.06v-1h3.06Zm-6.11,0h-3.06v-1h3.06Zm-6.12,0h-3.05v-1h3.05Zm-6.11,0h-3.06v-1h3.06Zm-6.11,0h-3.06v-1h3.06Zm-6.11,0h-3.06v-1h3.06Zm-6.12,0h-3.05v-1h3.05Zm-6.11,0H226v-1h3.06Zm-6.11,0h-3.06v-1H223Zm-6.12,0h-3.05v-1h3.05Zm-6.11,0H207.7v-1h3.06Zm-6.11,0h-3.06v-1h3.06Zm-6.12,0h-3.05v-1h3.05Zm-6.11,0h-3.06v-1h3.06Zm-6.11,0h-3.06v-1h3.06Zm-6.12,0h-3.05v-1h3.05Zm-6.11,0H171v-1h3.06Zm-6.11,0h-3.06v-1H168Zm-6.12,0h-3v-1h3Zm-6.11,0h-3.05v-1h3.05Zm-6.11,0h-3.06v-1h3.06Zm-6.11,0h-3.06v-1h3.06Zm-6.12,0h-3.05v-1h3.05Zm-6.11,0h-3.06v-1h3.06Zm-6.11,0h-3.06v-1h3.06Zm-6.12,0h-3v-1h3Zm-6.11,0h-3.06v-1H113Zm-6.11,0h-3.06v-1h3.06Zm-6.12,0h-3v-1h3Zm-6.11,0H91.55v-1h3.06Zm-6.11,0H85.44v-1H88.5Z"/><rect class="cls-3" x="100.48" y="249.89" width="1.53" height="1.02" transform="translate(-147.4 144.91) rotate(-45)"/><path class="cls-3" d="M104.31,248.06l-.73-.72,2.17-2.16.72.72Zm4.32-4.32-.72-.72,2.16-2.17.72.73Zm4.32-4.32-.72-.73,2.16-2.16.72.73Zm4.33-4.33-.73-.72,2.16-2.16.73.72Zm4.32-4.32-.72-.72,2.16-2.16.72.72Zm4.32-4.32-.72-.73,2.16-2.16.72.73Zm4.32-4.32-.72-.73,2.16-2.16.73.72Zm4.33-4.33-.73-.72,2.17-2.16.72.72Zm4.32-4.32-.72-.72,2.16-2.16.72.72Zm4.32-4.32-.72-.73,2.16-2.16.72.73Zm4.32-4.33-.72-.72L149,202l.73.72Zm4.33-4.32-.73-.72,2.17-2.16.72.72Zm4.32-4.32-.72-.72,2.16-2.16.72.72Zm4.32-4.32-.72-.73,2.16-2.16.72.73Zm4.32-4.33-.72-.72,2.16-2.16.72.72Zm4.33-4.32-.73-.72,2.17-2.16.72.72Zm4.32-4.32-.72-.72,2.16-2.16.72.72Zm4.32-4.32-.72-.73,2.16-2.16.72.73Zm4.32-4.33-.72-.72,2.16-2.16.73.72Zm4.33-4.32-.73-.72,2.16-2.16.73.72Zm4.32-4.32-.72-.72,2.16-2.17.72.73Zm4.32-4.32-.72-.73,2.16-2.16.72.73Zm4.33-4.33-.73-.72,2.16-2.16.73.72Zm4.32-4.32-.73-.72,2.17-2.16.72.72Zm4.32-4.32-.72-.72,2.16-2.17.72.73Zm4.32-4.32-.72-.73,2.16-2.16.72.72Zm4.32-4.33L216,135l2.16-2.16.73.72Zm4.33-4.32-.72-.72,2.16-2.16.72.72Zm4.32-4.32-.72-.72,2.16-2.16.72.72Zm4.32-4.32-.72-.73,2.16-2.16.72.73Zm4.32-4.33-.72-.72,2.17-2.16.72.72Zm4.33-4.32-.73-.72,2.17-2.16.72.72Zm4.32-4.32-.72-.72,2.16-2.17.72.73Zm4.32-4.32-.72-.73,2.16-2.16.72.73Zm4.33-4.33-.73-.72,2.16-2.16.73.72Zm4.32-4.32-.72-.72L257,93.89l.72.72Zm4.32-4.32-.72-.73,2.16-2.16.72.73Zm4.32-4.32-.72-.73,2.16-2.16.73.72Zm4.33-4.33-.73-.72L270,80.92l.72.72Zm4.32-4.32-.72-.72,2.16-2.16.72.72Zm4.32-4.32-.72-.73,2.16-2.16.72.73Zm4.32-4.33-.72-.72L283,68l.73.72Zm4.33-4.32-.73-.72,2.17-2.16.72.72Zm4.32-4.32-.72-.72,2.16-2.16.72.72Zm4.32-4.32-.72-.73L295.94,55l.72.73Zm4.32-4.33-.72-.72,2.16-2.16.73.72Zm4.33-4.32-.73-.72,2.17-2.16.72.72Zm4.32-4.32-.72-.72L308.91,42l.72.72Z"/><rect class="cls-3" x="305.59" y="265.65" width="1.02" height="1.53" transform="translate(-98.73 294.48) rotate(-45)"/><path class="cls-3" d="M303,264.08l-2.17-2.16.73-.72,2.16,2.16Zm-4.33-4.32-2.16-2.16.72-.73,2.17,2.16Zm-4.32-4.32-2.16-2.17.72-.72,2.16,2.16Zm-4.32-4.33L287.91,249l.72-.72,2.16,2.16Zm-4.33-4.32-2.16-2.16.73-.72,2.16,2.16Zm-4.32-4.32-2.16-2.16.72-.73,2.17,2.16Zm-4.32-4.32L274.94,236l.72-.72,2.16,2.16Zm-4.32-4.33-2.16-2.16.72-.72,2.16,2.16Zm-4.33-4.32-2.16-2.16.73-.73,2.16,2.17Zm-4.32-4.32L262,223l.72-.73,2.16,2.16Zm-4.32-4.33-2.16-2.16.72-.72,2.16,2.16Zm-4.32-4.32-2.16-2.16.72-.72,2.16,2.16Zm-4.32-4.32L249,210.05l.73-.72,2.16,2.16Zm-4.33-4.32-2.16-2.17.72-.72,2.16,2.16Zm-4.32-4.33-2.16-2.16.72-.72,2.16,2.16Zm-4.32-4.32L236,197.08l.72-.72,2.16,2.16Zm-4.32-4.32-2.17-2.16.73-.73,2.16,2.17Zm-4.33-4.32-2.16-2.16.72-.73,2.17,2.16Zm-4.32-4.33-2.16-2.16.72-.72,2.16,2.16ZM220.91,182l-2.16-2.16.72-.72,2.16,2.16Zm-4.33-4.32-2.16-2.16.73-.73,2.16,2.16Zm-4.32-4.32-2.16-2.17.72-.72,2.16,2.16ZM207.94,169l-2.16-2.16.72-.72,2.16,2.16Zm-4.32-4.32-2.17-2.16.73-.72,2.16,2.16Zm-4.33-4.32-2.16-2.16.72-.73,2.17,2.16ZM195,156l-2.16-2.16.72-.72,2.16,2.16Zm-4.32-4.32-2.16-2.16.72-.72,2.16,2.16Zm-4.32-4.32-2.17-2.16.73-.72,2.16,2.16ZM182,143.05l-2.16-2.16.72-.73,2.17,2.16Zm-4.32-4.33-2.16-2.16.72-.72L178.4,138Zm-4.32-4.32-2.16-2.16.72-.72,2.16,2.16ZM169,130.08l-2.17-2.16.73-.72,2.16,2.16Zm-4.33-4.32-2.16-2.16.72-.73,2.17,2.17Zm-4.32-4.33-2.16-2.16.72-.72,2.16,2.16Zm-4.32-4.32L153.91,115l.72-.72,2.16,2.16Zm-4.33-4.32-2.16-2.16.73-.73,2.16,2.17Zm-4.32-4.32-2.16-2.16.72-.73,2.17,2.16Zm-4.32-4.32L140.94,102l.72-.72,2.16,2.16Zm-4.32-4.33-2.16-2.16.72-.72,2.16,2.16Zm-4.33-4.32-2.16-2.16.73-.73,2.16,2.17Zm-4.32-4.32L128,89l.72-.72,2.16,2.16Zm-4.32-4.33-2.16-2.16.72-.72,2.16,2.16Zm-4.32-4.32-2.16-2.16.72-.72,2.16,2.16Zm-4.33-4.32L115,76.05l.73-.72,2.16,2.16Zm-4.32-4.32-2.16-2.17.72-.72,2.16,2.16Zm-4.32-4.33-2.16-2.16.72-.72,2.16,2.16Zm-4.32-4.32L102,63.08l.72-.72,2.16,2.16Zm-4.33-4.32-2.16-2.16.73-.73,2.16,2.17ZM95.55,56.6l-2.16-2.16.72-.73,2.16,2.16Zm-4.32-4.33-2.16-2.16.72-.72L92,51.55ZM86.91,48l-2.17-2.16.73-.72,2.16,2.16Zm-4.33-4.32-2.16-2.16.73-.73,2.16,2.16Z"/><path class="cls-3" d="M246.38,143.41c-.41-1.52-.89-3-1.4-4.44l6.21-6a61.41,61.41,0,0,0-7.3-12.7l-8.29,2.35A54.69,54.69,0,0,0,229,116l2.38-8.29a62.62,62.62,0,0,0-12.68-7.35l-6,6.19a54.1,54.1,0,0,0-9-2.44l-2.08-8.37a61.35,61.35,0,0,0-14.65,0l-2.11,8.37c-1.52.27-3,.59-4.55,1s-3,.89-4.45,1.41l-6-6.22a61.87,61.87,0,0,0-12.7,7.3l2.35,8.3a53.9,53.9,0,0,0-6.59,6.58l-8.29-2.38a62.62,62.62,0,0,0-7.35,12.68l6.19,6a52.79,52.79,0,0,0-2.44,9l-8.37,2.08a61.35,61.35,0,0,0,0,14.65l8.37,2.11c.27,1.52.59,3,1,4.55s.89,3,1.41,4.45l-6.22,6a61.41,61.41,0,0,0,7.3,12.7l8.3-2.35a53.9,53.9,0,0,0,6.58,6.59L157,206.84a62.15,62.15,0,0,0,12.68,7.35l6-6.19a52.79,52.79,0,0,0,9,2.44l2.08,8.37a61.87,61.87,0,0,0,14.65,0l2.11-8.38c1.51-.27,3-.59,4.55-1s3-.88,4.45-1.4l6,6.21a61,61,0,0,0,12.7-7.3l-2.35-8.29a54,54,0,0,0,6.59-6.59l8.29,2.38a61.89,61.89,0,0,0,7.35-12.68l-6.19-6a53.15,53.15,0,0,0,2.44-9l8.37-2.08a61.35,61.35,0,0,0,0-14.65L247.37,148C247.1,146.44,246.78,144.93,246.38,143.41Zm-41,56a43.56,43.56,0,1,1,30.9-53.3A43.56,43.56,0,0,1,205.4,199.39Z"/><path class="cls-3" d="M221.64,150a28.39,28.39,0,1,1-34.74-20.14A28.39,28.39,0,0,1,221.64,150Z"/><path class="cls-7" d="M375.65,314.36h-52.6c8.71-32.81,10.93-73.72,10.35-79.42-.23-2.24-9.11-5.24-14.38-6.27-7.17-1.39-16.56-1.42-25.58-.49a16.27,16.27,0,0,0-6.69-1.29,86.22,86.22,0,0,0-15.7-2,7,7,0,0,1-1.14-2.94c-.23-4.58-.56-9.31-.55-14a32.56,32.56,0,0,0,4.69-6.86c.21-.42.4-.84.59-1.26,1.43.2,2.74-.83,3.65-1.8,2.32-2.44,3.16-5.6,3.41-8.85a11.89,11.89,0,0,0-.61-5.49,40.24,40.24,0,0,0,2.49-6.58,30.87,30.87,0,0,0,.94-7.89,22.51,22.51,0,0,0-4-13.27,22.84,22.84,0,0,0-9.18-7.18,28.88,28.88,0,0,0-11.52-2.49,8.78,8.78,0,0,0-2.46-2c-3.52-1.42-7.54-1-11.23.18a89.22,89.22,0,0,0-11.85,5c-4.72,2.24-9.36,4.7-14.26,6.56a41,41,0,0,1-8.63,2.25,20.19,20.19,0,0,0-2.86,4.39c-1.57,3.4-1.81,7.57,1.11,10.35a16.33,16.33,0,0,0,9.78,4,26.07,26.07,0,0,0,1.6,6.38l0,.38a.44.44,0,0,0,0,.2s0,.08,0,.12l.13-.14c.16.45.33.9.5,1.35a30.47,30.47,0,0,1,1.76,6.06,37.55,37.55,0,0,1,.3,6.36c0,3.89.06,7.65,2.12,11.1a23.45,23.45,0,0,0,15.26,11,22.08,22.08,0,0,0,8.94-.28,22.19,22.19,0,0,1-.16,6.66l-12.25,4.66h0s-10.37,1.79-15,10.08-15.29,43.28-15.29,43.28a29.57,29.57,0,0,0,9.21,4.13,34.22,34.22,0,0,0-.73,4.4c-7.22,3.43-17.2,7.71-23.13,10.22L173,240.22H121.83l23.32,74.14H122.88l2.42-29.62c.92-.13,1.43-.28,1.43-.44l-1.65-6.08c0-.53-6.23-1-13.9-1s-13.9.42-13.9,1l-1.65,6.08c0,.16.51.31,1.42.44l2.43,29.62H76.67c4.84-5,12.26-15.22,13.76-32.2,2.26-25.61-9.31-29.5-12-39.79a13.26,13.26,0,0,1,5.48-15h0c.05,0,.09-.08.09-.12,0-.71-7.81-1.31-18.4-1.48l.48-20a71.24,71.24,0,0,0,3.4-6.32l0-.1.21-.45c3.11,4.24,7.36,7.39,11.31,10.84,2.18,1.9,4.2,4,6.49,5.76a42.83,42.83,0,0,0,9.23,5.94c.47.2,1,.37,1.43.52l.27.07a2.57,2.57,0,0,0,.83,0c2.07-.25,3-1.94,3-3.78,0-5.18-.38-10.34-.4-15.51,0-2.13.22-4.23.33-6.35a45.17,45.17,0,0,0,0-5.7,37.87,37.87,0,0,0-2.52-10.83c-.71-1.83-1.47-3.64-2-5.53a32.58,32.58,0,0,1-1.11-5.24,35.86,35.86,0,0,1-.27-5.28c0-1.87.23-3.72.3-5.59a47.32,47.32,0,0,0-.88-10.75c-.07-.31-.13-.63-.2-.95-.35-1.28-.73-2.56-1.16-3.82A45.41,45.41,0,0,0,88,130.62c-3.7-5-10.68-12.16-17.63-8.21-4.3,2.46-6.63,7.45-6.79,12.16a16.34,16.34,0,0,0,.39,4.14,31.3,31.3,0,0,0,.83,5.26c-.17-.21-.35-.42-.53-.62l-.68-.8-.34-.39c-.11-.14-.23-.27-.34-.4l-.34-.39c-.12-.12-.23-.25-.34-.38l-.37-.41-.32-.35-.39-.42-.32-.32c-.13-.15-.28-.28-.42-.42l-.3-.31-.51-.47-.25-.23c-.25-.23-.51-.45-.78-.67a24.44,24.44,0,0,0-6.8-4,12.12,12.12,0,0,0-7.15-.81c-4.78,1.17-7,6-7.19,10.42a31.23,31.23,0,0,0,3.47,14.92,65.93,65.93,0,0,0,9,13.17c1,1.17,2,2.31,3,3.45-.54.48-1.06,1-1.56,1.52-.24.25-.47.51-.7.77l-.27.33-.38.45-.3.39-.33.42-.29.4c-.1.14-.21.28-.31.43l-.29.42c-.1.14-.2.27-.29.41l-.31.45-.27.4-.33.5c-.08.12-.16.24-.23.36l-.58.89-.45.68a31.54,31.54,0,0,0,.14-5.32,16.53,16.53,0,0,0-.15-4.15c-.77-4.66-3.74-9.32-8.33-11.22-7.4-3.07-13.4,4.87-16.41,10.31a44.69,44.69,0,0,0-4.59,12.74c-.27,1.3-.48,2.61-.66,3.93,0,.32-.05.64-.07,1a46.83,46.83,0,0,0,.53,10.77c.31,1.84.75,3.65,1,5.5a37.33,37.33,0,0,1,.43,5.27,33,33,0,0,1-.42,5.34c-.31,1.94-.83,3.83-1.29,5.74a37.42,37.42,0,0,0-1.09,11.05,44.91,44.91,0,0,0,.72,5.66c.38,2.09.89,4.14,1.15,6.25.66,5.13,1,10.3,1.63,15.43.23,1.83,1.34,3.4,3.43,3.39a2.5,2.5,0,0,0,.55-.05,1.91,1.91,0,0,0,.53-.16,25.19,25.19,0,0,0,5.8-4c.65-.57,1.28-1.16,1.89-1.75-2.29,5.2-3.83,12.16-2.87,23,1.49,17,8.92,27.22,13.76,32.2H10.41v8.49h10.5v65.44H367.58V322.85h8.07Zm-156-5.06q-.14,1.38-.27,2.7h-21C204.1,311.41,212.09,310.5,219.6,309.3Zm-164.39-87a36.84,36.84,0,0,1,2.09-3.48l.46,6.88-4.15,0C54.11,224.56,54.63,223.4,55.21,222.28Zm4.83,3.4-.25-10.45.06-.09c1.18-1.69,2.35-3.41,3.49-5.13V225.7Z"/><path class="cls-10" d="M81.85,242.76c-2.63-10.26,5.32-15,5.32-15l-21.66-.1v0l-2.3,0-2.3,0v0l-21.66.1s8,4.74,5.32,15S30.72,256.9,32.91,282.45s17.47,35.8,17.47,35.8h.07c0,.42,5.37.76,12,.76H64c6.62,0,12-.34,12-.76H76S91.32,308,93.51,282.45,84.48,253,81.85,242.76Z"/><path class="cls-11" d="M87.25,227.63c0,.84-10.75,1.53-24,1.53s-24-.69-24-1.53,10.74-1.52,24-1.52S87.25,226.79,87.25,227.63Z"/><polygon class="cls-12" points="50.65 301.63 48.66 301.63 49.08 300.01 50.05 299.9 50.65 301.63"/><polygon class="cls-13" points="57.05 308.56 56.8 307.95 57.35 307.87 57.51 308.15 57.05 308.56"/><polygon class="cls-14" points="44.81 308.91 44.43 308 45.25 307.88 45.49 308.31 44.81 308.91"/><polygon class="cls-15" points="58.54 298.24 58.01 296.96 59.16 296.8 59.49 297.39 58.54 298.24"/><polygon class="cls-16" points="51.43 314.63 50.9 313.35 52.05 313.19 52.38 313.78 51.43 314.63"/><polygon class="cls-12" points="73.34 308 74.86 306.71 75.59 308.22 74.92 308.93 73.34 308"/><polygon class="cls-13" points="63.98 306.85 64.57 307.15 64.19 307.57 63.89 307.45 63.98 306.85"/><polygon class="cls-14" points="73.1 298.67 73.97 299.12 73.42 299.74 72.97 299.57 73.1 298.67"/><polygon class="cls-15" points="69.51 315.68 70.74 316.32 69.97 317.19 69.33 316.94 69.51 315.68"/><polygon class="cls-16" points="64.35 298.58 65.58 299.22 64.8 300.08 64.17 299.85 64.35 298.58"/><polygon class="cls-15" points="87.42 293 88.94 291.71 89.67 293.21 89 293.93 87.42 293"/><polygon class="cls-13" points="78.05 291.84 78.65 292.15 78.27 292.57 77.97 292.45 78.05 291.84"/><polygon class="cls-14" points="87.18 283.67 88.05 284.12 87.5 284.74 87.05 284.57 87.18 283.67"/><polygon class="cls-17" points="83.59 300.68 84.82 301.31 84.05 302.18 83.41 301.94 83.59 300.68"/><polygon class="cls-16" points="78.42 283.58 79.66 284.21 78.88 285.08 78.25 284.84 78.42 283.58"/><polygon class="cls-15" points="46.41 287.62 47.93 286.33 48.66 287.83 48 288.55 46.41 287.62"/><polygon class="cls-13" points="37.05 286.46 37.64 286.77 37.27 287.19 36.96 287.07 37.05 286.46"/><polygon class="cls-14" points="46.17 278.28 47.05 278.74 46.5 279.36 46.04 279.19 46.17 278.28"/><polygon class="cls-17" points="42.59 295.3 43.82 295.93 43.04 296.8 42.41 296.56 42.59 295.3"/><polygon class="cls-16" points="37.42 278.2 38.65 278.83 37.88 279.7 37.24 279.46 37.42 278.2"/><polygon class="cls-18" points="47.41 261.75 49.39 261.64 49.06 263.28 48.1 263.44 47.41 261.75"/><polygon class="cls-13" points="40.66 255.15 40.94 255.75 40.39 255.86 40.22 255.58 40.66 255.15"/><polygon class="cls-14" points="52.87 254.18 53.29 255.07 52.48 255.23 52.22 254.82 52.87 254.18"/><polygon class="cls-17" points="39.7 265.53 40.3 266.78 39.16 267 38.8 266.43 39.7 265.53"/><polygon class="cls-16" points="45.97 248.8 46.56 250.06 45.42 250.28 45.06 249.7 45.97 248.8"/><polygon class="cls-18" points="71.2 252.26 69.72 253.59 68.95 252.11 69.59 251.38 71.2 252.26"/><polygon class="cls-13" points="80.6 253.13 80 252.84 80.36 252.41 80.67 252.52 80.6 253.13"/><polygon class="cls-14" points="71.73 261.58 70.84 261.15 71.37 260.52 71.83 260.68 71.73 261.58"/><polygon class="cls-17" points="74.8 244.47 73.55 243.87 74.29 242.98 74.94 243.2 74.8 244.47"/><polygon class="cls-16" points="80.48 261.4 79.23 260.8 79.97 259.91 80.62 260.13 80.48 261.4"/><polygon class="cls-18" points="63.09 242.76 64.48 241.33 65.35 242.75 64.75 243.53 63.09 242.76"/><polygon class="cls-13" points="53.66 242.51 54.28 242.76 53.95 243.21 53.63 243.13 53.66 242.51"/><polygon class="cls-14" points="61.95 233.49 62.86 233.86 62.37 234.53 61.91 234.4 61.95 233.49"/><polygon class="cls-17" points="60.02 250.77 61.31 251.29 60.62 252.22 59.97 252.05 60.02 250.77"/><polygon class="cls-16" points="53.23 234.25 54.52 234.76 53.83 235.7 53.17 235.53 53.23 234.25"/><polygon class="cls-18" points="65.25 282.65 67.24 282.55 66.91 284.19 65.94 284.35 65.25 282.65"/><polygon class="cls-13" points="58.5 276.06 58.79 276.66 58.24 276.76 58.07 276.49 58.5 276.06"/><polygon class="cls-14" points="70.72 275.08 71.14 275.98 70.32 276.13 70.07 275.72 70.72 275.08"/><polygon class="cls-17" points="57.55 286.44 58.14 287.69 57 287.91 56.64 287.33 57.55 286.44"/><polygon class="cls-16" points="63.81 269.71 64.4 270.96 63.26 271.18 62.9 270.61 63.81 269.71"/><polygon class="cls-15" points="79.43 275.06 79.56 277.04 77.92 276.73 77.74 275.77 79.43 275.06"/><polygon class="cls-13" points="85.94 268.22 85.34 268.51 85.23 267.97 85.5 267.79 85.94 268.22"/><polygon class="cls-14" points="87.07 280.42 86.18 280.86 86.02 280.04 86.42 279.78 87.07 280.42"/><polygon class="cls-17" points="75.55 267.4 74.3 268.01 74.07 266.88 74.64 266.51 75.55 267.4"/><polygon class="cls-16" points="92.36 273.45 91.11 274.06 90.88 272.92 91.45 272.55 92.36 273.45"/><polygon class="cls-19" points="67.24 150.4 67.24 229.13 69.33 229.16 70.84 164.44 67.24 150.4"/><polygon class="cls-19" points="59.11 183.57 62.02 229.18 64.11 229.06 63.22 191.48 59.11 183.57"/><path class="cls-20" d="M76.64,179.61c-.72-4.36-3.48-8.85-8.23-9.42a11.41,11.41,0,0,0-6.77,1.69,23.49,23.49,0,0,0-6,4.77,47.37,47.37,0,0,0-4.73,6.59l-.43.68a31.27,31.27,0,0,0,.13-5.3,16.93,16.93,0,0,0-.14-4.14c-.75-4.64-3.62-9.3-8.08-11.19-7.18-3.06-13,4.85-15.92,10.29A45.26,45.26,0,0,0,22,186.28c-.26,1.29-.47,2.6-.64,3.92,0,.32,0,.64-.06,1a48.26,48.26,0,0,0,.5,10.74c.31,1.84.74,3.65,1,5.49a38.57,38.57,0,0,1,.41,5.26,33.85,33.85,0,0,1-.4,5.32c-.3,1.94-.8,3.82-1.26,5.73a38.93,38.93,0,0,0-1.05,11,48.52,48.52,0,0,0,.69,5.64c.38,2.08.87,4.14,1.13,6.24.63,5.12.95,10.27,1.58,15.39.22,1.82,1.29,3.39,3.32,3.38a2.53,2.53,0,0,0,1-.21c3.53-1.67,6.75-4.92,9.44-7.71,2-2,3.65-4.35,5.51-6.5,3.37-3.9,7.06-7.55,9.52-12.13a64,64,0,0,0,3.34-8.13,76,76,0,0,1,3.31-8,65,65,0,0,1,4.49-7.12c1.5-2.19,3-4.4,4.38-6.66a66.15,66.15,0,0,0,7-14.14A32,32,0,0,0,76.64,179.61Z"/><path class="cls-21" d="M76.64,179.61c-.72-4.36-3.48-8.85-8.23-9.42a11.41,11.41,0,0,0-6.77,1.69,23.49,23.49,0,0,0-6,4.77,46.37,46.37,0,0,0-4.68,6.52c-.25.73-.52,1.46-.81,2.17-1.23,3-2.81,5.85-3.88,8.91-2.29,6.53-3,13.45-4.11,20.26a93.51,93.51,0,0,1-2,10,85.25,85.25,0,0,1-3.48,9.85c-1.34,3.25-2.77,6.45-4.06,9.72A82.28,82.28,0,0,0,29.31,254a105,105,0,0,0-2.25,11.38h.13a2.53,2.53,0,0,0,1-.21c3.53-1.67,6.75-4.92,9.44-7.71,2-2,3.65-4.35,5.51-6.5,3.37-3.9,7.06-7.55,9.52-12.13a64,64,0,0,0,3.34-8.13,76,76,0,0,1,3.31-8,65,65,0,0,1,4.49-7.12c1.5-2.19,3-4.4,4.38-6.66a66.15,66.15,0,0,0,7-14.14A32,32,0,0,0,76.64,179.61Z"/><path class="cls-22" d="M58.62,180a40.65,40.65,0,0,1,3.33,6.5c.51,1.18,1,2.38,1.58,3.53a27.46,27.46,0,0,0,2,3.3c2.06,2.9,4.53,5.47,6.81,8.19a53.21,53.21,0,0,0,2.81-6.76,32,32,0,0,0,1.44-15.19c-.72-4.36-3.48-8.85-8.23-9.42a11.41,11.41,0,0,0-6.77,1.69,23.75,23.75,0,0,0-6,4.73A17.22,17.22,0,0,1,58.62,180Z"/><path class="cls-20" d="M42.15,143.67c.16-4.42,2.33-9.23,7-10.39a11.41,11.41,0,0,1,6.93.81,23.7,23.7,0,0,1,6.6,4A45.81,45.81,0,0,1,68.18,144l.52.62a31.14,31.14,0,0,1-.81-5.25,16.65,16.65,0,0,1-.38-4.12c.15-4.7,2.41-9.68,6.59-12.13,6.73-4,13.51,3.17,17.09,8.18a45.48,45.48,0,0,1,6,12c.42,1.25.79,2.52,1.12,3.8.07.32.13.64.19,1a47.62,47.62,0,0,1,.86,10.72c-.07,1.86-.26,3.71-.29,5.57a37.14,37.14,0,0,0,.26,5.27,33.25,33.25,0,0,0,1.08,5.23c.54,1.88,1.28,3.69,2,5.52a38.49,38.49,0,0,1,2.44,10.8,44.86,44.86,0,0,1,0,5.68c-.11,2.12-.33,4.21-.32,6.33,0,5.16.36,10.31.39,15.47,0,1.83-.86,3.53-2.87,3.77a2.41,2.41,0,0,1-1.07-.07c-3.71-1.21-7.32-4-10.34-6.45-2.22-1.78-4.18-3.85-6.29-5.75-3.84-3.44-8-6.59-11-10.82a62.64,62.64,0,0,1-4.35-7.64,77.07,77.07,0,0,0-4.29-7.49,66.41,66.41,0,0,0-5.36-6.49c-1.77-2-3.51-4-5.19-6.05a66.17,66.17,0,0,1-8.71-13.14A31.9,31.9,0,0,1,42.15,143.67Z"/><path class="cls-21" d="M42.15,143.67c.16-4.42,2.33-9.23,7-10.39a11.41,11.41,0,0,1,6.93.81,23.7,23.7,0,0,1,6.6,4,46.21,46.21,0,0,1,5.48,5.88c.33.7.69,1.38,1.07,2,1.6,2.82,3.53,5.44,5,8.34,3.11,6.19,4.72,13,6.65,19.58a92.39,92.39,0,0,0,3.29,9.62,84,84,0,0,0,4.71,9.33c1.73,3.05,3.56,6.05,5.25,9.12a82.28,82.28,0,0,1,4.46,9.45,106.89,106.89,0,0,1,3.68,11l-.13,0a2.41,2.41,0,0,1-1.07-.07c-3.71-1.21-7.32-4-10.34-6.45-2.22-1.78-4.18-3.85-6.29-5.75-3.84-3.44-8-6.59-11-10.82a62.64,62.64,0,0,1-4.35-7.64,77.07,77.07,0,0,0-4.29-7.49,66.41,66.41,0,0,0-5.36-6.49c-1.77-2-3.51-4-5.19-6.05a66.17,66.17,0,0,1-8.71-13.14A31.9,31.9,0,0,1,42.15,143.67Z"/><path class="cls-23" d="M167.66,358S157.6,345,178,340.82s43.35,5.7,58.72-12.05,15.74-85.72,28.14-93.43c9.3-5.77,35.08-9.3,50.39-6.24,5.1,1,13.72,4,13.94,6.24.88,8.93-4.93,104.52-31.33,119.31S167.66,358,167.66,358Z"/><path class="cls-24" d="M159.19,358S149.13,345,169.52,340.82s43.35,5.7,58.73-12.05,15.73-85.72,28.13-93.43,63.45-8.93,64.33,0-4.92,104.52-31.33,119.31S159.19,358,159.19,358Z"/><path class="cls-25" d="M192,307.73a9.64,9.64,0,0,0-1.69-2.62,7.88,7.88,0,0,0-2.49-1.7c-1.24-.55-2.56-1-3.83-1.44s-2.61-1-3.93-1.42a32.9,32.9,0,0,0-3.49-1.11,3.33,3.33,0,0,0-1.37,0c-1.08,0-2.18,0-3.26.05-1.44.07-2.87.17-4.3.34a18.89,18.89,0,0,0-3.5.71,9.46,9.46,0,0,0-3,1.69,27.21,27.21,0,0,0-2.28,1.72,1.45,1.45,0,0,0-.51,1,.83.83,0,0,0,.56.71,3,3,0,0,0,1.1.22c1.86-.17,3.58-1.12,5.31-1.79a10.43,10.43,0,0,1,1.75-.44,18.29,18.29,0,0,1,2.67-.26c.61,0,1.22,0,1.82,0l-.55.15a26.62,26.62,0,0,0-2.57,1.12,11.9,11.9,0,0,0-2.39,1.27l0,0a8.45,8.45,0,0,0-1.58,1,16.29,16.29,0,0,0-2.44,2.47c-.28.34-.57.67-.87,1-.5.42-1,.85-1.46,1.3a4.12,4.12,0,0,0-1.15,1.73c-.21.79.47,1.12,1.16,1.17a3.45,3.45,0,0,0,2.66-1.42,21.44,21.44,0,0,1,3-2.68,9.66,9.66,0,0,1,3.7-1.65l.14,0a1.36,1.36,0,0,0-.25.11,4.34,4.34,0,0,0-1.39,1.34c-1,1.32-2.18,2.52-3.28,3.78-.57.64-1.14,1.26-1.72,1.89-.38.41-2.6,2.67-1.1,2.95a3,3,0,0,0,1.3-.17,5.51,5.51,0,0,0,1.53-.82,17,17,0,0,0,2.7-2.73,15.49,15.49,0,0,1,1.37-1.55,5.92,5.92,0,0,1,2.3-1.21,17.34,17.34,0,0,1,4.05-.62l-1.41.46c-2,.71-3.22,2.1-4.64,3.62-.67.72-1.55,1.23-2.19,2-.39.45-.77,1.16-.29,1.69s.95.27,1.38.11a15.54,15.54,0,0,0,3.69-2.61,20.89,20.89,0,0,1,4.57-2.38c1.8-.79,3.25-.32,5.09,0,.89.16,1.8.29,2.71.38a30.36,30.36,0,0,0,5.56.15,4.23,4.23,0,0,0,2-.59,2.9,2.9,0,0,0,1-1.18C193.28,311.75,192.8,309.4,192,307.73Z"/><path class="cls-26" d="M164,301.33a20.16,20.16,0,0,1,6.66-1.68,33.43,33.43,0,0,1,7.07.15l.33.05a14,14,0,0,0-1.44-.41,3.33,3.33,0,0,0-1.37,0c-1.08,0-2.18,0-3.26.05-1.44.07-2.87.17-4.3.34a18.89,18.89,0,0,0-3.5.71,9.46,9.46,0,0,0-3,1.69,27.21,27.21,0,0,0-2.28,1.72,1.86,1.86,0,0,0-.46.67A37.83,37.83,0,0,1,164,301.33Z"/><path class="cls-26" d="M161,311.15a30.52,30.52,0,0,1,2.92-2.4c1-.76,2-1.54,3.08-2.22a19.5,19.5,0,0,1,3.53-1.86c1-.38,2-.69,3-1.1a6,6,0,0,0-2.39-.09l-.12,0a26.62,26.62,0,0,0-2.57,1.12,11.9,11.9,0,0,0-2.39,1.27l0,0a8.45,8.45,0,0,0-1.58,1,16.29,16.29,0,0,0-2.44,2.47c-.28.34-.57.67-.87,1-.5.42-1,.85-1.46,1.3a4.12,4.12,0,0,0-1.15,1.73.77.77,0,0,0,.16.77A10,10,0,0,1,161,311.15Z"/><path class="cls-27" d="M168.47,309c1-.56,2-1,3-1.51a15.66,15.66,0,0,0-4,.92,14.34,14.34,0,0,0-4,2.3,15.12,15.12,0,0,0-1.61,1.49c-.36.4-.68.85-1,1.25a3.29,3.29,0,0,1-1.52,1.06,2.7,2.7,0,0,0,.41.07,3.45,3.45,0,0,0,2.66-1.42,21.44,21.44,0,0,1,3-2.68A9.74,9.74,0,0,1,168.47,309Z"/><path class="cls-27" d="M191,312.84a10.81,10.81,0,0,1-1.88.82,13.61,13.61,0,0,1-4.36.41c-1.52-.05-3-.25-4.52-.43a18.07,18.07,0,0,0-3.82-.19,8.54,8.54,0,0,0-3.38,1,19.45,19.45,0,0,0-3.7,2.94,16.27,16.27,0,0,1-1.73,1.48,3.25,3.25,0,0,1-1.18.54l-.23,0,0,0c.35.39.95.27,1.38.11a15.54,15.54,0,0,0,3.69-2.61,20.89,20.89,0,0,1,4.57-2.38c1.8-.79,3.25-.32,5.09,0,.89.16,1.8.29,2.71.38a30.36,30.36,0,0,0,5.56.15,4.23,4.23,0,0,0,2-.59,2.9,2.9,0,0,0,1-1.18,4.12,4.12,0,0,0,.55-1.67A14,14,0,0,1,191,312.84Z"/><path class="cls-27" d="M170.69,312.39a17.34,17.34,0,0,1,4.05-.62h0a7.33,7.33,0,0,0,1.81-.56,15.16,15.16,0,0,0-4.2-.12,10.43,10.43,0,0,0-4.19,1.31,16.09,16.09,0,0,0-3.49,3.5,12.8,12.8,0,0,1-1.79,1.74,2.8,2.8,0,0,1-1.53.62,1.36,1.36,0,0,1-.35,0c0,.3.08.54.5.62a3,3,0,0,0,1.3-.17,5.51,5.51,0,0,0,1.53-.82,17,17,0,0,0,2.7-2.73,15.49,15.49,0,0,1,1.37-1.55A5.92,5.92,0,0,1,170.69,312.39Z"/><path class="cls-27" d="M167.08,303.58a18.29,18.29,0,0,1,2.67-.26c.36,0,.73,0,1.09,0l.81-.19a22.3,22.3,0,0,0-3.89-.45,11,11,0,0,0-4.13.72,10.6,10.6,0,0,0-2.07,1,8.49,8.49,0,0,1-1.65,1,2.25,2.25,0,0,1-.88.16,3.16,3.16,0,0,0,1,.18c1.86-.17,3.58-1.12,5.31-1.79A10.43,10.43,0,0,1,167.08,303.58Z"/><path class="cls-25" d="M238.5,240.82a17.73,17.73,0,0,0-3-7.22,7.52,7.52,0,0,0-.64-.62,4.27,4.27,0,0,0-.79-.57c-1,.42-2,.81-3,1.28a16.33,16.33,0,0,0-4.65,3.52,22.54,22.54,0,0,0-3.23,4.29,21.74,21.74,0,0,0-2.08,5.21,63.19,63.19,0,0,0-1.58,11.21c-.21,2.5-.45,5-.74,7.48,0,.85-.1,1.69-.19,2.53-.36,3.45-.64,6.92-1,10.36-.39,3.23-.88,6.44-1.55,9.61a24.83,24.83,0,0,0-.81,8.1,7.51,7.51,0,0,0,1.48,3.72,7.61,7.61,0,0,0,3.42,2.36,8.22,8.22,0,0,0,7.09-.4,10.39,10.39,0,0,0,3.76-5.32,40.78,40.78,0,0,0,1.75-7.19c1.08-6.16,2.47-12.25,3.49-18.44C237.71,261.4,240.41,250.46,238.5,240.82Z"/><path class="cls-25" d="M229.49,304.33c.33-1.88.72-3.75,1.15-5.62s.8-3.61,1.31-5.38a27.8,27.8,0,0,0,1.53-7.92,22.13,22.13,0,0,0-11,3.75c-6.29,4.09-34.56,16.16-34.56,16.16l2.3,7.64s24.24-2,38.83-5.46C229.14,306.44,229.3,305.39,229.49,304.33Z"/><path class="cls-28" d="M236.31,231.31s-10.06,1.78-14.56,10.06-14.84,43.15-14.84,43.15,6.68,5.2,18.29,5.56l1.25,0C238.83,290.1,236.31,231.31,236.31,231.31Z"/><path class="cls-29" d="M252,225.18l-18,7.06s-14.06,22.31-13.25,40.11-3.75,54.29-3.75,54.29,34.33,10.37,73.64-1.22c0,0,2.68-86.61,0-94.11S252,225.18,252,225.18Z"/><path class="cls-30" d="M247.44,228.69c-1.56,2.82-5.44,6.64-1.12,9.28,2.94,1.8,7.6.39,10.66-.61a28.91,28.91,0,0,0,10.18-5.87,7.44,7.44,0,0,0,2.06-2.61c1-2.5-1.51-4.11-1.62-6.48-.35-7.07-.93-14.48-.16-21.59a7.59,7.59,0,0,1,.46-2.32,1.27,1.27,0,0,0-.56-.54,4.72,4.72,0,0,0-2.95-.12c-1.09.21-2.13.58-3.2.87a39.23,39.23,0,0,0-7.42,2.78,40.34,40.34,0,0,0-6.3,4.31,16.88,16.88,0,0,0-2,1.56,1.48,1.48,0,0,0-.51.87c0,.45.48.74.71,1.08,1.51,2.22,2,5.59,2.4,8.29a27.74,27.74,0,0,1,.13,9.09A6.87,6.87,0,0,1,247.44,228.69Z"/><path class="cls-25" d="M265.65,162a29.18,29.18,0,0,0-17.4-10.62,26.43,26.43,0,0,0-19.16,3.82,23.35,23.35,0,0,0-9.64,15c-.14.7-.25,1.4-.34,2.11a15.5,15.5,0,0,0-.48,2.27c-.5,3.91.88,7.69,2.19,11.29a32.49,32.49,0,0,1,1.71,6,40.75,40.75,0,0,1,.29,6.35c0,3.88.06,7.62,2.05,11.07,3.1,5.35,8.55,9.8,14.8,11s12.9-1,18.32-4.27a35.09,35.09,0,0,0,13.62-14.42c3.13-6.38,3.18-13.33,2-20.15S270.09,167.58,265.65,162Z"/><path class="cls-31" d="M226.81,193.82c-.41-.95-1-1.86-1.85-1.5a.85.85,0,0,0-.35.33,3.12,3.12,0,0,0-.52,1.78,6.22,6.22,0,0,0,.57,2.78,2.08,2.08,0,0,0,.88.95,1.12,1.12,0,0,0,1.28-.15,2.77,2.77,0,0,0,.49-2.54A7.77,7.77,0,0,0,226.81,193.82Z"/><path class="cls-3" d="M225.16,193.63a.84.84,0,0,0-.38-.39.17.17,0,0,0-.15,0,.33.33,0,0,0-.06.1.1.1,0,0,0,0,.05h0v0a.81.81,0,0,0-.06.31,1.59,1.59,0,0,0,.15.71.49.49,0,0,0,.23.24.26.26,0,0,0,.32,0,.69.69,0,0,0,.13-.64A1.62,1.62,0,0,0,225.16,193.63Z"/><path class="cls-31" d="M250.54,188c-.41-.95-1-1.86-1.86-1.5a.85.85,0,0,0-.35.33,3.11,3.11,0,0,0-.52,1.77,6.11,6.11,0,0,0,.58,2.79,2,2,0,0,0,.88.95,1.12,1.12,0,0,0,1.27-.15,2.74,2.74,0,0,0,.49-2.54A7.46,7.46,0,0,0,250.54,188Z"/><path class="cls-3" d="M248.88,187.76a.82.82,0,0,0-.37-.39.16.16,0,0,0-.15,0l-.07.09,0,.06h0l0,0a1,1,0,0,0,0,.31,1.59,1.59,0,0,0,.15.71.51.51,0,0,0,.22.24.29.29,0,0,0,.33,0,.68.68,0,0,0,.12-.65A1.55,1.55,0,0,0,248.88,187.76Z"/><path class="cls-32" d="M221.72,183.72a6.3,6.3,0,0,1,2.72.36,20.15,20.15,0,0,1,3.13,1.36,29.22,29.22,0,0,1,2.52,1.49c.15-.12.24-.32.14-.44-.44-.52-.83-1.05-1.3-1.54a15.82,15.82,0,0,0-1.67-1.5,11.94,11.94,0,0,0-3.49-1.89c-1-.32-2.41-.65-3.16.3a3.26,3.26,0,0,0-.44,2.43.44.44,0,0,0,0,.2s0,.08,0,.12A2.19,2.19,0,0,1,221.72,183.72Z"/><path class="cls-32" d="M243.66,181.67c1.52-.56,3.06-1,4.61-1.47,2.56-.74,5.14-1.42,7.75-1.94a5.88,5.88,0,0,0-2.14-1.19,8.25,8.25,0,0,0-6.92.81,29.7,29.7,0,0,0-3.71,2.34,15.19,15.19,0,0,0-1.78,1.52,7.08,7.08,0,0,0-.5.59,1.66,1.66,0,0,1-.16.21l0,.05A19.86,19.86,0,0,0,243.66,181.67Z"/><path class="cls-27" d="M237,203.46a12,12,0,0,1-3.43-1.63,1.75,1.75,0,0,1-.55-.6,2,2,0,0,1,.16-1c.19-.65.47-1.26.63-1.92.3-1.16.58-2.31.78-3.48,0-.29-.07-.58-.12-.87a37.1,37.1,0,0,1-1.18,4.81c-.34,1.05-1.13,2.34-.56,3.45a3.91,3.91,0,0,0,2.73,1.66l.93.24,1.35.19C237.52,204.05,237.28,203.76,237,203.46Z"/><path class="cls-3" d="M237.6,213.84s7.44-2.19,12.56-7.06a6.71,6.71,0,0,1-3.71,7.5A8.4,8.4,0,0,1,237.6,213.84Z"/><path class="cls-33" d="M277.85,156.58a22.22,22.22,0,0,0-8.9-7.16,27.19,27.19,0,0,0-11.18-2.48,8.58,8.58,0,0,0-2.38-2c-3.42-1.41-7.32-1-10.89.18a86,86,0,0,0-11.5,5c-4.58,2.24-9.08,4.69-13.83,6.55a38.89,38.89,0,0,1-8.37,2.24,20.15,20.15,0,0,0-2.78,4.38c-1.52,3.39-1.75,7.55,1.08,10.32a15.71,15.71,0,0,0,9.92,4c4.21.21,8.33-1.18,12.15-2.82,3.29-1.41,6.55-2.95,9.75-4.54a22.46,22.46,0,0,0,6.33-4.22A53.16,53.16,0,0,1,260,175.64a50.45,50.45,0,0,1,9.71,13,22.2,22.2,0,0,1,1.74,4.53,41.82,41.82,0,0,0,1.24,4.51c.13.36.59.21.79,0a4.58,4.58,0,0,0,1-2.49c.23-1.13.57-2.23.91-3.34a71.57,71.57,0,0,1,2.84-7.19,44.25,44.25,0,0,0,2.62-7,31.59,31.59,0,0,0,.91-7.87A22.83,22.83,0,0,0,277.85,156.58Z"/><path class="cls-25" d="M278.44,184.23c-.62-1.55-2.07-3.13-3.91-2.86-2.25.33-3.35,2.94-3.78,4.9-.1.49-.24,1.12-.33,1.78a13.39,13.39,0,0,0-.6,2.46,26.5,26.5,0,0,0,.09,5.7c.12,1.44.28,3.58,1.94,4.06s2.92-.68,3.88-1.72c2.25-2.44,3.06-5.59,3.31-8.83A12.3,12.3,0,0,0,278.44,184.23Z"/><path class="cls-27" d="M277.33,185.94a1.37,1.37,0,0,0-2-.24,5.37,5.37,0,0,0-1.8,2.76,16.52,16.52,0,0,0-.72,3.42,13.22,13.22,0,0,0,.41,5.2c.09.32.49,0,.45-.24-.15-1-.29-2.06-.34-3.09a1.8,1.8,0,0,0,.35-.12,3.61,3.61,0,0,0,.53-.33,5.17,5.17,0,0,0,.92-1c.51-.66.87-1.41,1.32-2.12.1-.16-.12-.26-.22-.12a22.61,22.61,0,0,1-1.32,1.88,4.44,4.44,0,0,1-.81.81,2.69,2.69,0,0,1-.46.28l-.34.14a11.58,11.58,0,0,1,.08-1.44,14.25,14.25,0,0,1,.87-3.7c.33-.78,1.16-2.46,2.26-2.07.85.3,1.17,1.55,1.19,2.34,0,.12.15,0,.16,0A3.43,3.43,0,0,0,277.33,185.94Z"/><path class="cls-25" d="M259.39,306.76a10.33,10.33,0,0,0-1.83-2.83,8.4,8.4,0,0,0-2.68-1.83c-1.34-.59-2.76-1-4.14-1.56s-2.82-1-4.24-1.53a35.88,35.88,0,0,0-3.77-1.2,3.52,3.52,0,0,0-1.48,0c-1.17,0-2.36,0-3.53.06-1.55.06-3.1.17-4.64.36a19.66,19.66,0,0,0-3.78.77,10.26,10.26,0,0,0-3.26,1.82,27.83,27.83,0,0,0-2.46,1.86,1.52,1.52,0,0,0-.55,1.05.88.88,0,0,0,.6.76,3.11,3.11,0,0,0,1.18.24c2-.18,3.88-1.21,5.74-1.93a9.5,9.5,0,0,1,1.89-.47,18.62,18.62,0,0,1,2.89-.29c.66,0,1.31,0,2,0l-.6.17a25.23,25.23,0,0,0-2.77,1.21,13.09,13.09,0,0,0-2.59,1.37l0,0a9.31,9.31,0,0,0-1.71,1.06,17,17,0,0,0-2.63,2.67c-.3.36-.62.72-.94,1.07-.54.46-1.08.92-1.58,1.41a4.36,4.36,0,0,0-1.24,1.87c-.22.85.51,1.21,1.25,1.26a3.71,3.71,0,0,0,2.88-1.53,22.47,22.47,0,0,1,3.27-2.89,10.51,10.51,0,0,1,4-1.79l.16,0-.27.11a4.86,4.86,0,0,0-1.51,1.45c-1.1,1.43-2.35,2.73-3.54,4.09-.61.69-1.23,1.36-1.86,2-.41.44-2.8,2.88-1.19,3.18a3,3,0,0,0,1.41-.18,5.55,5.55,0,0,0,1.66-.89,17.92,17.92,0,0,0,2.9-2.94,17,17,0,0,1,1.49-1.68,6.43,6.43,0,0,1,2.48-1.3,18.58,18.58,0,0,1,4.38-.67l-1.52.49c-2.2.77-3.48,2.27-5,3.91-.74.78-1.68,1.34-2.38,2.14-.41.49-.82,1.26-.31,1.83a1.34,1.34,0,0,0,1.49.11,16.19,16.19,0,0,0,4-2.81,23.18,23.18,0,0,1,4.94-2.57c1.94-.86,3.51-.34,5.49,0,1,.18,2,.31,2.93.42a35.46,35.46,0,0,0,6,.16,4.54,4.54,0,0,0,2.18-.65,3.13,3.13,0,0,0,1.1-1.27C260.74,311.1,260.22,308.57,259.39,306.76Z"/><path class="cls-26" d="M229.1,299.86a21.58,21.58,0,0,1,7.18-1.82,36.13,36.13,0,0,1,7.64.16l.37.05c-.52-.17-1-.32-1.56-.44a3.52,3.52,0,0,0-1.48,0c-1.17,0-2.36,0-3.53.06-1.55.06-3.1.17-4.64.36a19.66,19.66,0,0,0-3.78.77,10.26,10.26,0,0,0-3.26,1.82,27.83,27.83,0,0,0-2.46,1.86,2,2,0,0,0-.5.72A40.68,40.68,0,0,1,229.1,299.86Z"/><path class="cls-26" d="M225.85,310.46a34,34,0,0,1,3.16-2.59c1.09-.82,2.17-1.67,3.33-2.41a21.87,21.87,0,0,1,3.8-2c1.09-.42,2.2-.75,3.27-1.18a6.23,6.23,0,0,0-2.58-.11l-.13,0a25.23,25.23,0,0,0-2.77,1.21,13.09,13.09,0,0,0-2.59,1.37l0,0a9.31,9.31,0,0,0-1.71,1.06,17,17,0,0,0-2.63,2.67c-.3.36-.62.72-.94,1.07-.54.46-1.08.92-1.58,1.41a4.36,4.36,0,0,0-1.24,1.87.81.81,0,0,0,.18.83A10.72,10.72,0,0,1,225.85,310.46Z"/><path class="cls-27" d="M233.94,308.12c1-.6,2.17-1.08,3.26-1.62a16.87,16.87,0,0,0-4.38,1,15.29,15.29,0,0,0-4.28,2.48,16.59,16.59,0,0,0-1.74,1.61c-.39.44-.74.92-1.13,1.35a3.5,3.5,0,0,1-1.64,1.15,3.11,3.11,0,0,0,.44.07,3.71,3.71,0,0,0,2.88-1.53,22.47,22.47,0,0,1,3.27-2.89A10.54,10.54,0,0,1,233.94,308.12Z"/><path class="cls-27" d="M258.26,312.29a12.58,12.58,0,0,1-2,.88,14.38,14.38,0,0,1-4.71.44c-1.64-.06-3.26-.26-4.88-.46a19.7,19.7,0,0,0-4.13-.21,9.41,9.41,0,0,0-3.65,1.12,21.51,21.51,0,0,0-4,3.18,20.13,20.13,0,0,1-1.86,1.6,3.38,3.38,0,0,1-1.28.58,1,1,0,0,1-.25,0l0,.05a1.34,1.34,0,0,0,1.49.11,16.19,16.19,0,0,0,4-2.81,23.18,23.18,0,0,1,4.94-2.57c1.94-.86,3.51-.34,5.49,0,1,.18,2,.31,2.93.42a35.46,35.46,0,0,0,6,.16,4.54,4.54,0,0,0,2.18-.65,3.13,3.13,0,0,0,1.1-1.27,4.41,4.41,0,0,0,.6-1.81A15.19,15.19,0,0,1,258.26,312.29Z"/><path class="cls-27" d="M236.34,311.8a18.58,18.58,0,0,1,4.38-.67h0a8,8,0,0,0,1.95-.61,16.78,16.78,0,0,0-4.53-.13,11.23,11.23,0,0,0-4.53,1.42,17.55,17.55,0,0,0-3.77,3.78,14.28,14.28,0,0,1-1.93,1.88,3,3,0,0,1-1.66.67,2.29,2.29,0,0,1-.37,0c-.05.32.08.58.53.66a3,3,0,0,0,1.41-.18,5.55,5.55,0,0,0,1.66-.89,17.92,17.92,0,0,0,2.9-2.94,17,17,0,0,1,1.49-1.68A6.43,6.43,0,0,1,236.34,311.8Z"/><path class="cls-27" d="M232.44,302.29a18.62,18.62,0,0,1,2.89-.29h1.18l.87-.2a24.81,24.81,0,0,0-4.2-.49,11.77,11.77,0,0,0-4.47.78,10.83,10.83,0,0,0-2.22,1.14,9.65,9.65,0,0,1-1.8,1.08,2.15,2.15,0,0,1-.94.17,3.12,3.12,0,0,0,1.06.2c2-.18,3.88-1.21,5.74-1.93A9.5,9.5,0,0,1,232.44,302.29Z"/><path class="cls-25" d="M315.63,289.9a45.31,45.31,0,0,0-2.05-7.72c-2.17-6.4-4-12.9-6.23-19.29-3.38-9.65-6.48-21.41-13.27-29.56a19.14,19.14,0,0,0-6.61-5.28c-.31-.1-.62-.19-.93-.26a4.24,4.24,0,0,0-3.41.51,9.63,9.63,0,0,0-1.65,1.4,9.41,9.41,0,0,0-1.49,2.06,15.26,15.26,0,0,0-1.54,5,28.24,28.24,0,0,0,.28,9.87,52.15,52.15,0,0,0,2.57,8.31c2.85,4.7,5.83,9.34,7.93,14.41,1.44,3.46,3,6.89,4.36,10.37,1.3,3.25,2.49,6.55,3.5,9.9.84,2.78,1.68,5.7,3.42,8.1a8,8,0,0,0,3.32,2.76,8.15,8.15,0,0,0,4.47.48c2.61-.41,5.24-1.72,6.51-4.05A11.16,11.16,0,0,0,315.63,289.9Z"/><path class="cls-25" d="M257.38,312.41s42.5-3.43,51.8-9.36,7.76-15.93,2.56-18.77-12.72-2-19.52,2.43-37.32,17.45-37.32,17.45Z"/><path class="cls-28" d="M280.94,227.64s-7.27,5.81-5.17,17.86,12.52,39.77,12.52,39.77,14.2.86,25.71-7.68c0,0-11.94-37.15-18.06-44.7A15.25,15.25,0,0,0,280.94,227.64Z"/><rect class="cls-34" x="172.09" y="312.2" width="71" height="2.38"/><polygon class="cls-34" points="196.18 314.58 148.22 314.58 125.59 240.61 173.56 240.61 196.18 314.58"/><polygon class="cls-35" points="194.57 314.58 146.6 314.58 123.97 240.61 171.94 240.61 194.57 314.58"/><path class="cls-36" d="M113.64,283.54H99.82l2.61,32.73c0,.56,5,1,11.21,1s11.21-.45,11.21-1l2.61-32.73Z"/><path class="cls-37" d="M104.28,286.54c1.16.08,2.31.21,3.47.29s2.54.13,3.81.15c2.42,0,4.84,0,7.26-.2,2-.14,4-.16,5.92-.38a21.68,21.68,0,0,0,2.52-.41l.2-2.45H99.82l.21,2.63C101.44,286.38,102.87,286.45,104.28,286.54Z"/><path class="cls-38" d="M127.46,282.57c0,.54-6.19,1-13.82,1s-13.82-.43-13.82-1,6.19-1,13.82-1S127.46,282,127.46,282.57Z"/><path class="cls-39" d="M127.12,278.51h-27l-1.6,6.06c0,.59,6.75,1.06,15.08,1.06s15.08-.47,15.08-1.06Z"/><path class="cls-40" d="M127.12,278.51c0,.52-6,.95-13.48.95s-13.48-.43-13.48-.95,6-.95,13.48-.95S127.12,278,127.12,278.51Z"/><rect class="cls-41" x="26.09" y="315.41" width="336.25" height="72.88"/><rect class="cls-42" x="233.71" y="315.41" width="128.62" height="72.88"/><g class="cls-43"><rect class="cls-41" x="26.09" y="315.41" width="336.25" height="10.01"/></g><rect class="cls-44" x="15.9" y="314.56" width="354.26" height="8.47"/></g></g></g></svg>